<svg width="20" height="22" viewBox="0 0 20 22" fill="none" xmlns="http://www.w3.org/2000/svg">
<path d="M12.8958 13.349C12.97 13.3788 13.0486 13.3935 13.1264 13.3935C13.2495 13.3935 13.3708 13.3569 13.4706 13.2858L13.9559 12.94L14.4413 13.2858C14.6041 13.4018 14.8244 13.426 15.0161 13.349C15.2078 13.272 15.3269 13.1115 15.3269 12.9302V10.974C15.7432 10.6525 16.0053 10.1875 16.0053 9.67087C16.0053 8.70317 15.086 7.91592 13.9559 7.91592C12.8258 7.91592 11.9065 8.70317 11.9065 9.67087C11.9065 10.1875 12.1686 10.6526 12.5849 10.974V12.9302C12.5849 13.1115 12.704 13.272 12.8958 13.349ZM14.6285 12.6412L14.3014 12.4081C14.1012 12.2655 13.8106 12.2656 13.6104 12.4081L13.2833 12.6412V11.3282C13.4941 11.3911 13.7203 11.4258 13.9559 11.4258C14.1915 11.4258 14.4176 11.3911 14.6285 11.3282V12.6412ZM13.9559 8.51402C14.7009 8.51402 15.3069 9.03298 15.3069 9.67091C15.3069 10.3088 14.7009 10.8278 13.9559 10.8278C13.2109 10.8278 12.6049 10.3088 12.6049 9.67091C12.6049 9.03298 13.211 8.51402 13.9559 8.51402Z" fill="#FF7643"/>
<path d="M18.0812 0.687325H1.78236C1.07851 0.687325 0.505859 1.17769 0.505859 1.78046V20.0292C0.505859 20.632 1.07851 21.1223 1.78236 21.1223H18.0812C18.7851 21.1223 19.3578 20.632 19.3578 20.0292V1.78046C19.3577 1.17769 18.7851 0.687325 18.0812 0.687325V0.687325ZM18.6593 20.0292C18.6593 20.3022 18.4 20.5243 18.0812 20.5243H1.78236C1.46361 20.5243 1.20427 20.3022 1.20427 20.0292V1.78046C1.20427 1.50746 1.46361 1.28538 1.78236 1.28538H18.0812C18.4 1.28538 18.6594 1.50746 18.6594 1.78046V20.0292H18.6593Z" fill="#FF7643"/>
<path d="M17.0471 2.16166H2.81652C2.50852 2.16166 2.25793 2.3762 2.25793 2.63995V13.9183C2.25793 14.0834 2.41428 14.2173 2.60714 14.2173C2.79999 14.2173 2.95634 14.0834 2.95634 13.9183V2.75972H16.9073V19.0499H2.95634V15.3263C2.95634 15.1611 2.79999 15.0272 2.60714 15.0272C2.41428 15.0272 2.25793 15.1611 2.25793 15.3263V19.1697C2.25793 19.4334 2.50852 19.6479 2.81652 19.6479H17.0471C17.3551 19.6479 17.6057 19.4334 17.6057 19.1697V2.63995C17.6057 2.3762 17.3551 2.16166 17.0471 2.16166Z" fill="#FF7643"/>
<path d="M16.0052 4.60645C16.0052 4.26727 15.6829 3.99133 15.2869 3.99133H4.57661C4.18052 3.99133 3.85828 4.26727 3.85828 4.60645V5.74668C3.85828 6.08586 4.18052 6.3618 4.57661 6.3618H12.0687C12.2616 6.3618 12.4179 6.22792 12.4179 6.06277C12.4179 5.89763 12.2616 5.76374 12.0687 5.76374H4.57661C4.56562 5.76374 4.55668 5.75609 4.55668 5.74668V4.60645C4.55668 4.59704 4.56562 4.58939 4.57661 4.58939H15.2869C15.2978 4.58939 15.3068 4.59704 15.3068 4.60645V5.74668C15.3068 5.75609 15.2978 5.76374 15.2869 5.76374H13.6713C13.4784 5.76374 13.3221 5.89763 13.3221 6.06277C13.3221 6.22792 13.4784 6.3618 13.6713 6.3618H15.2869C15.6829 6.3618 16.0052 6.08586 16.0052 5.74668V4.60645Z" fill="#FF7643"/>
<path d="M5.94521 16.5662C5.66068 17.1083 5.8512 17.3725 6.06114 17.4988C6.55287 17.7944 7.16113 17.3276 7.45349 17.1032L7.45661 17.1008C7.5508 17.2847 7.70924 17.4308 7.9135 17.5194C8.42302 17.7405 8.84937 17.5212 9.15834 17.243C9.23121 17.3573 9.32308 17.4573 9.43226 17.5394C9.70766 17.7465 10.1038 17.8184 10.5213 17.8184C10.8957 17.8184 11.2874 17.7605 11.6238 17.6905C11.8112 17.6515 11.9263 17.4899 11.8807 17.3294C11.8352 17.1689 11.6464 17.0703 11.459 17.1094C10.7147 17.2642 10.1147 17.2567 9.89316 17.0901C9.70115 16.9456 9.66367 16.6946 9.6584 16.5578C9.65333 16.4263 9.54857 16.3131 9.40023 16.2789C9.25198 16.2446 9.09488 16.2974 9.0134 16.4089C8.66127 16.8905 8.41948 17.0686 8.22918 16.986C8.15506 16.9538 8.10384 16.896 8.07693 16.8142C8.03596 16.6896 8.06185 16.5318 8.14132 16.4215C8.24264 16.281 8.19175 16.0967 8.02767 16.01C7.86359 15.9232 7.64839 15.9668 7.54712 16.1073C7.39575 16.3172 7.20127 16.4943 6.98737 16.6579C6.74242 16.8459 6.59636 16.93 6.51115 16.9668C6.54588 16.8546 6.66354 16.6368 6.99808 16.2158C7.34682 15.7773 7.70156 15.3384 8.07316 14.9101L8.08024 14.9019C8.18975 14.7758 8.16656 14.5986 8.02716 14.4964C7.88776 14.3942 7.67972 14.4018 7.55103 14.5138C6.75634 15.2059 5.46824 15.533 4.26968 15.3475C4.0799 15.3181 3.89822 15.426 3.86391 15.5886C3.82959 15.7511 3.95563 15.9066 4.14541 15.936C4.94956 16.0605 5.77047 15.996 6.5071 15.7684C6.50286 15.774 6.45099 15.8413 6.42059 15.8795C6.29395 16.0388 6.08214 16.3053 5.94521 16.5662Z" fill="#FF7643"/>
<path d="M8.85994 7.91595C8.66709 7.91595 8.51074 8.04984 8.51074 8.21498C8.51074 8.38013 8.66709 8.51402 8.85994 8.51402H9.9318C10.1247 8.51402 10.281 8.38013 10.281 8.21498C10.281 8.04984 10.1247 7.91595 9.9318 7.91595H8.85994Z" fill="#FF7643"/>
<path d="M4.20748 8.51402H7.12193C7.31478 8.51402 7.47113 8.38013 7.47113 8.21498C7.47113 8.04984 7.31478 7.91595 7.12193 7.91595H4.20748C4.01463 7.91595 3.85828 8.04984 3.85828 8.21498C3.85828 8.38013 4.01463 8.51402 4.20748 8.51402Z" fill="#FF7643"/>
<path d="M4.20748 9.8953H9.93174C10.1246 9.8953 10.2809 9.76142 10.2809 9.59627C10.2809 9.43112 10.1246 9.29724 9.93174 9.29724H4.20748C4.01463 9.29724 3.85828 9.43112 3.85828 9.59627C3.85828 9.76142 4.01463 9.8953 4.20748 9.8953Z" fill="#FF7643"/>
<path d="M10.2809 10.9776C10.2809 10.8124 10.1246 10.6786 9.93174 10.6786H7.12191C6.92906 10.6786 6.77271 10.8124 6.77271 10.9776C6.77271 11.1427 6.92906 11.2766 7.12191 11.2766H9.93174C10.1246 11.2766 10.2809 11.1427 10.2809 10.9776Z" fill="#FF7643"/>
<path d="M4.20748 11.2766H5.42612C5.61898 11.2766 5.77533 11.1427 5.77533 10.9776C5.77533 10.8124 5.61898 10.6786 5.42612 10.6786H4.20748C4.01463 10.6786 3.85828 10.8124 3.85828 10.9776C3.85828 11.1427 4.01463 11.2766 4.20748 11.2766Z" fill="#FF7643"/>
<path d="M4.20748 12.6579H8.56815C8.76101 12.6579 8.91736 12.5241 8.91736 12.3589C8.91736 12.1938 8.76101 12.0599 8.56815 12.0599H4.20748C4.01463 12.0599 3.85828 12.1938 3.85828 12.3589C3.85828 12.5241 4.01463 12.6579 4.20748 12.6579Z" fill="#FF7643"/>
</svg>
