<svg width="24" height="24" viewBox="0 0 24 24" fill="none" xmlns="http://www.w3.org/2000/svg">
<path fill-rule="evenodd" clip-rule="evenodd" d="M13.3333 18.0892C13.3333 18.5588 12.96 18.9383 12.5 18.9383C12.04 18.9383 11.6666 18.5588 11.6666 18.0892C11.6666 17.6197 12.04 17.2401 12.5 17.2401C12.96 17.2401 13.3333 17.6197 13.3333 18.0892ZM13.8334 5.63133C13.8334 5.91323 13.6101 6.14079 13.3334 6.14079H11.6667C11.3901 6.14079 11.1667 5.91323 11.1667 5.63133C11.1667 5.34943 11.3901 5.12272 11.6667 5.12272H13.3334C13.6101 5.12272 13.8334 5.34943 13.8334 5.63133ZM16.9999 18.7924C16.9999 19.4479 16.4766 19.9819 15.8333 19.9819H9.1666C8.52327 19.9819 7.99994 19.4479 7.99994 18.7924V5.20681C7.99994 4.55216 8.52327 4.01808 9.1666 4.01808H15.8333C16.4766 4.01808 16.9999 4.55216 16.9999 5.20681V18.7924ZM15.8333 3H9.16667C7.97167 3 7 3.99005 7 5.2068V18.7924C7 20.01 7.97167 21 9.16667 21H15.8333C17.0283 21 18 20.01 18 18.7924V5.2068C18 3.99005 17.0283 3 15.8333 3Z" fill="#FF7643"/>
</svg>
