<svg width="15" height="16" viewBox="0 0 15 16" fill="none" xmlns="http://www.w3.org/2000/svg">
<path d="M15 8C15 3.58125 11.6426 0 7.5 0C3.35742 0 0 3.58125 0 8C0 12.4187 3.35742 16 7.5 16C7.54395 16 7.58789 16 7.63184 15.9969V9.77188H6.02051V7.76875H7.63184V6.29375C7.63184 4.58437 8.61035 3.65313 10.04 3.65313C10.7256 3.65313 11.3145 3.70625 11.4844 3.73125V5.51875H10.5C9.72363 5.51875 9.57129 5.9125 9.57129 6.49062V7.76562H11.4316L11.1885 9.76875H9.57129V15.6906C12.7061 14.7312 15 11.6531 15 8Z" fill="white"/>
</svg>
